<svg xmlns="http://www.w3.org/2000/svg" width="48" height="48"><path style="stroke:none;fill-rule:nonzero;fill:#9775ff;fill-opacity:1" d="M43.2 33.898a4.983 4.983 0 0 1-4.2 4c-3.3.5-8.8 1.102-15 1.102-6.102 0-11.602-.602-15-1.102a4.983 4.983 0 0 1-4.2-4C4.399 31.602 4 28.2 4 24c0-4.2.398-7.602.8-9.898a4.983 4.983 0 0 1 4.2-4C12.3 9.602 17.8 9 24 9c6.2 0 11.602.602 15 1.102a4.983 4.983 0 0 1 4.2 4c.402 2.296.902 5.699.902 9.898-.102 4.2-.5 7.602-.903 9.898Zm0 0"/><path style="stroke:none;fill-rule:nonzero;fill:#fff;fill-opacity:1" d="M20 31V17l12 7Zm0 0"/></svg>